{"title":"Titanic.1997.720p.BluRay.AC3.2CH.x264-PSA","uid":9671035,"size":2563757376,"categoryP":"video","categoryS":"hd___movies","magnet":"?xt=urn:btih:9deba8a7d9beef4f676560ac852a68cec0893d26&amp;dn=Titanic.1997.720p.BluRay.AC3.2CH.x264-PSA&amp;tr=udp%3A%2F%2Ftracker.openbittorrent.com%3A80&amp;tr=udp%3A%2F%2Fopen.demonii.com%3A1337&amp;tr=udp%3A%2F%2Ftracker.coppersurfer.tk%3A6969&amp;tr=udp%3A%2F%2Fexodus.desync.com%3A6969","seeders":7,"leechers":0,"uploader":"Dr.XJ","files":1,"time":1393462958,"description":"Ripped directly from ORIGINAL 50GB BluRay for highest possible quality within this size range.\nAudio is UNTOUCHED Dolby Digital 2CHANNELS AC3 from ORIGINAL BluRay, same quality.\n\nSamples: &lt;a href=&quot;\nhttp://bayimg.com/JAKkIAAFE&quot; rel=&quot;nofollow&quot; target=&quot;_NEW&quot;&gt;\nhttp://bayimg.com/JAKkIAAFE&lt;/a&gt;\n &lt;a href=&quot;\nhttp://bayimg.com/JAkKmaaFe&quot; rel=&quot;nofollow&quot; target=&quot;_NEW&quot;&gt;\nhttp://bayimg.com/JAkKmaaFe&lt;/a&gt;\n &lt;a href=&quot;\nhttp://bayimg.com/JaKKoaafE&quot; rel=&quot;nofollow&quot; target=&quot;_NEW&quot;&gt;\nhttp://bayimg.com/JaKKoaafE&lt;/a&gt;\n &lt;a href=&quot;\nhttp://bayimg.com/KAKKAAAFE&quot; rel=&quot;nofollow&quot; target=&quot;_NEW&quot;&gt;\nhttp://bayimg.com/KAKKAAAFE&lt;/a&gt;\n\nGeneral\nFormat                                   : Matroska MKV\nFormat version                           : Version 4 / Version 2\nFile size                                : 2.39 GiB\nDuration                                 : 3h 14mn\nOverall bit rate                         : 1 755 Kbps\nTITLE                                    : TITANIC\n\nVideo\nFormat                                   : AVC\nFormat/Info                              : Advanced Video Codec\nFormat profile                           : &lt;a class=&quot;__cf_email__&quot; href=&quot;/cdn-cgi/l/email-protection&quot; data-cfemail=&quot;93dbfaf4fbd3dfa6bda1&quot;&gt;[email&amp;#160;protected]&lt;/a&gt;&lt;script cf-hash='f9e31' type=&quot;text/javascript&quot;&gt;\n/* &lt;![CDATA[ */!function(){try{var t=&quot;currentScript&quot;in document?document.currentScript:function(){for(var t=document.getElementsByTagName(&quot;script&quot;),e=t.length;e--;)if(t[e].getAttribute(&quot;cf-hash&quot;))return t[e]}();if(t&amp;&amp;t.previousSibling){var e,r,n,i,c=t.previousSibling,a=c.getAttribute(&quot;data-cfemail&quot;);if(a){for(e=&quot;&quot;,r=parseInt(a.substr(0,2),16),n=2;a.length-n;n+=2)i=parseInt(a.substr(n,2),16)^r,e+=String.fromCharCode(i);e=document.createTextNode(e),c.parentNode.replaceChild(e,c)}}}catch(u){}}();/* ]]&gt; */&lt;/script&gt;\nBit rate                                 : 1 496 Kbps\nWidth                                    : 1 280 pixels\nHeight                                   : 544 pixels\nDisplay aspect ratio                     : 2.35:1\nFrame rate mode                          : Constant\nFrame rate                               : 23.976 fps\nStream size                              : 2.04 GiB (85%)\n\n\nAudio\nFormat                                   : AC-3\nFormat/Info                              : Audio Coding 3\nFormat profile                           : Dolby Digital\nMode extension                           : CM (complete main)\nFormat settings, Endianness              : Big\nBit rate mode                            : Constant\nBit rate                                 : 224 Kbps\nChannel(s)                               : 2 channels\nChannel positions                        : Front: L R\nSampling rate                            : 48.0 KHz\nBit depth                                : 16 bits\nCompression mode                         : Lossy\nStream size                              : 312 MiB (13%)\nLanguage                                 : English\n\n\nMenu\n00:00:00.000                             : en:Chapter 1\n00:01:24.376                             : en:Chapter 2\n00:04:40.113                             : en:Chapter 3\n00:08:26.131                             : en:Chapter 4\n00:10:46.896                             : en:Chapter 5\n00:12:52.647                             : en:Chapter 6\n00:16:52.553                             : en:Chapter 7\n00:20:07.873                             : en:Chapter 8\n00:23:38.876                             : en:Chapter 9\n00:26:26.668                             : en:Chapter 10\n00:29:03.367                             : en:Chapter 11\n00:29:37.526                             : en:Chapter 12\n00:35:00.056                             : en:Chapter 13\n00:36:48.748                             : en:Chapter 14\n00:42:59.160                             : en:Chapter 15\n00:45:26.224                             : en:Chapter 16\n00:47:11.746                             : en:Chapter 17\n00:53:32.668                             : en:Chapter 18\n00:56:47.988                             : en:Chapter 19\n01:05:32.178                             : en:Chapter 20\n01:10:19.966                             : en:Chapter 21\n01:14:06.359                             : en:Chapter 22\n01:16:10.816                             : en:Chapter 23\n01:19:59.169                             : en:Chapter 24\n01:22:50.632                             : en:Chapter 25\n01:23:40.057                             : en:Chapter 26\n01:28:21.630                             : en:Chapter 27\n01:29:19.855                             : en:Chapter 28\n01:32:52.400                             : en:Chapter 29\n01:36:59.105                             : en:Chapter 30\n01:44:41.150                             : en:Chapter 31\n01:46:21.166                             : en:Chapter 32\n01:47:58.973                             : en:Chapter 33\n01:50:11.105                             : en:Chapter 34\n01:52:21.526                             : en:Chapter 35\n01:53:54.328                             : en:Chapter 36\n01:55:21.832                             : en:Chapter 37\n01:56:10.881                             : en:Chapter 38\n01:57:53.233                             : en:Chapter 39\n02:06:38.341                             : en:Chapter 40\n02:08:50.097                             : en:Chapter 41\n02:11:22.083                             : en:Chapter 42\n02:15:42.676                             : en:Chapter 43\n02:19:43.584                             : en:Chapter 44\n02:21:24.685                             : en:Chapter 45\n02:25:28.762                             : en:Chapter 46\n02:27:28.131                             : en:Chapter 47\n02:29:07.272                             : en:Chapter 48\n02:29:56.821                             : en:Chapter 49\n02:33:31.536                             : en:Chapter 50\n02:36:52.486                             : en:Chapter 51\n02:38:34.005                             : en:Chapter 52\n02:40:34.667                             : en:Chapter 53\n02:45:00.641                             : en:Chapter 54\n02:47:48.809                             : en:Chapter 55\n02:49:22.653                             : en:Chapter 56\n02:52:09.611                             : en:Chapter 57\n02:53:41.328                             : en:Chapter 58\n02:57:53.621                             : en:Chapter 59\n02:59:35.431                             : en:Chapter 60\n03:01:29.379                             : en:Chapter 61\n03:03:13.774                             : en:Chapter 62\n03:04:58.004                             : en:Chapter 63\n03:07:19.770                             : en:Chapter 64\n\n","torrent":{"xt":"urn:btih:9deba8a7d9beef4f676560ac852a68cec0893d26","amp;dn":"Titanic.1997.720p.BluRay.AC3.2CH.x264-PSA","amp;tr":["udp%3A%2F%2Ftracker.openbittorrent.com%3A80","udp%3A%2F%2Fopen.demonii.com%3A1337","udp%3A%2F%2Ftracker.coppersurfer.tk%3A6969","udp%3A%2F%2Fexodus.desync.com%3A6969"],"infoHash":"9deba8a7d9beef4f676560ac852a68cec0893d26","infoHashBuffer":{"type":"Buffer","data":[157,235,168,167,217,190,239,79,103,101,96,172,133,42,104,206,192,137,61,38]},"announce":[],"urlList":[]}}